<?xml version="1.0" encoding="UTF-8"?>
<!DOCTYPE svg PUBLIC "-//W3C//DTD SVG 1.1//EN" "http://www.w3.org/Graphics/SVG/1.1/DTD/svg11.dtd">
<svg xmlns="http://www.w3.org/2000/svg" version="1.1" width="512px" height="512px" style="shape-rendering:geometricPrecision; text-rendering:geometricPrecision; image-rendering:optimizeQuality; fill-rule:evenodd; clip-rule:evenodd" xmlns:xlink="http://www.w3.org/1999/xlink">
<g><path style="opacity:1" fill="#81cb26" d="M 215.5,143.5 C 205.167,154.5 194.5,165.167 183.5,175.5C 183.5,164.833 183.5,154.167 183.5,143.5C 194.167,143.5 204.833,143.5 215.5,143.5 Z"/></g>
<g><path style="opacity:1" fill="#74c72b" d="M 215.5,143.5 C 223.167,143.5 230.833,143.5 238.5,143.5C 220.5,162.167 202.167,180.5 183.5,198.5C 183.5,190.833 183.5,183.167 183.5,175.5C 194.5,165.167 205.167,154.5 215.5,143.5 Z"/></g>
<g><path style="opacity:1" fill="#68c42f" d="M 238.5,143.5 C 246.833,143.5 255.167,143.5 263.5,143.5C 263.013,144.473 262.513,145.473 262,146.5C 237.167,171.333 212.333,196.167 187.5,221C 186.016,221.662 184.683,222.496 183.5,223.5C 183.5,215.167 183.5,206.833 183.5,198.5C 202.167,180.5 220.5,162.167 238.5,143.5 Z"/></g>
<g><path style="opacity:1" fill="#60c131" d="M 263.5,143.5 C 267.5,143.5 271.5,143.5 275.5,143.5C 245.167,174.5 214.5,205.167 183.5,235.5C 183.5,231.5 183.5,227.5 183.5,223.5C 184.683,222.496 186.016,221.662 187.5,221C 212.333,196.167 237.167,171.333 262,146.5C 262.513,145.473 263.013,144.473 263.5,143.5 Z"/></g>
<g><path style="opacity:0.994" fill="#58bf34" d="M 275.5,143.5 C 282.95,143.786 289.95,145.452 296.5,148.5C 281.218,162.114 266.551,176.448 252.5,191.5C 246.833,191.5 241.167,191.5 235.5,191.5C 235.5,196.5 235.5,201.5 235.5,206.5C 218.916,224.752 201.583,242.419 183.5,259.5C 183.5,251.5 183.5,243.5 183.5,235.5C 214.5,205.167 245.167,174.5 275.5,143.5 Z"/></g>
<g><path style="opacity:0.993" fill="#49bb39" d="M 296.5,148.5 C 302.026,149.888 307.026,152.222 311.5,155.5C 300.22,168.448 288.22,180.781 275.5,192.5C 267.854,191.793 260.187,191.46 252.5,191.5C 266.551,176.448 281.218,162.114 296.5,148.5 Z"/></g>
<g><path style="opacity:0.99" fill="#3cb73d" d="M 311.5,155.5 C 317.482,158.823 322.482,163.157 326.5,168.5C 314.5,180.167 302.5,191.833 290.5,203.5C 286.345,198.677 281.345,195.011 275.5,192.5C 288.22,180.781 300.22,168.448 311.5,155.5 Z"/></g>
<g><path style="opacity:0.986" fill="#30b342" d="M 326.5,168.5 C 328.129,169.625 329.629,170.959 331,172.5C 333.358,175.222 335.191,178.222 336.5,181.5C 323.035,194.465 309.701,207.631 296.5,221C 295.906,221.464 295.239,221.631 294.5,221.5C 295.019,215.064 293.685,209.064 290.5,203.5C 302.5,191.833 314.5,180.167 326.5,168.5 Z"/></g>
<g><path style="opacity:0.993" fill="#1fae47" d="M 340.5,189.5 C 343.72,195.694 345.72,202.36 346.5,209.5C 316.216,238.116 286.55,267.45 257.5,297.5C 250.167,297.5 242.833,297.5 235.5,297.5C 235.5,304.5 235.5,311.5 235.5,318.5C 219.527,334.807 203.527,351.14 187.5,367.5C 186.167,367.5 184.833,367.5 183.5,367.5C 183.5,360.167 183.5,352.833 183.5,345.5C 235.833,293.5 288.167,241.5 340.5,189.5 Z"/></g>
<g><path style="opacity:0.995" fill="#13aa4b" d="M 346.5,209.5 C 347.653,217.49 347.653,225.49 346.5,233.5C 345.883,233.389 345.383,233.056 345,232.5C 323.605,254.062 302.105,275.395 280.5,296.5C 272.889,297.434 265.222,297.767 257.5,297.5C 286.55,267.45 316.216,238.116 346.5,209.5 Z"/></g>
<g><path style="opacity:0.987" fill="#4abb39" d="M 235.5,206.5 C 235.5,216.167 235.5,225.833 235.5,235.5C 234.883,235.389 234.383,235.056 234,234.5C 217.299,251.368 200.465,268.035 183.5,284.5C 183.5,276.167 183.5,267.833 183.5,259.5C 201.583,242.419 218.916,224.752 235.5,206.5 Z"/></g>
<g><path style="opacity:0.986" fill="#08a74f" d="M 346.5,233.5 C 338.16,268.841 316.16,289.841 280.5,296.5C 302.105,275.395 323.605,254.062 345,232.5C 345.383,233.056 345.883,233.389 346.5,233.5 Z"/></g>
<g><path style="opacity:0.991" fill="#27b044" d="M 336.5,181.5 C 338.341,183.849 339.674,186.515 340.5,189.5C 288.167,241.5 235.833,293.5 183.5,345.5C 183.5,341.5 183.5,337.5 183.5,333.5C 212.167,305.5 240.5,277.167 268.5,248.5C 284.636,246.697 293.303,237.697 294.5,221.5C 295.239,221.631 295.906,221.464 296.5,221C 309.701,207.631 323.035,194.465 336.5,181.5 Z"/></g>
<g><path style="opacity:0.993" fill="#3db73d" d="M 235.5,235.5 C 235.5,239.833 235.5,244.167 235.5,248.5C 238.833,248.5 242.167,248.5 245.5,248.5C 225.167,269.5 204.5,290.167 183.5,310.5C 183.5,301.833 183.5,293.167 183.5,284.5C 200.465,268.035 217.299,251.368 234,234.5C 234.383,235.056 234.883,235.389 235.5,235.5 Z"/></g>
<g><path style="opacity:0.994" fill="#30b341" d="M 245.5,248.5 C 253.167,248.5 260.833,248.5 268.5,248.5C 240.5,277.167 212.167,305.5 183.5,333.5C 183.5,325.833 183.5,318.167 183.5,310.5C 204.5,290.167 225.167,269.5 245.5,248.5 Z"/></g>
<g><path style="opacity:0.975" fill="#13aa4b" d="M 235.5,318.5 C 235.5,329.167 235.5,339.833 235.5,350.5C 234.698,349.048 234.198,347.382 234,345.5C 226.631,352.702 219.464,360.035 212.5,367.5C 204.167,367.5 195.833,367.5 187.5,367.5C 203.527,351.14 219.527,334.807 235.5,318.5 Z"/></g>
<g><path style="opacity:0.991" fill="#07a74f" d="M 235.5,350.5 C 235.5,356.167 235.5,361.833 235.5,367.5C 227.833,367.5 220.167,367.5 212.5,367.5C 219.464,360.035 226.631,352.702 234,345.5C 234.198,347.382 234.698,349.048 235.5,350.5 Z"/></g>
</svg>
